<svg xmlns="http://www.w3.org/2000/svg" viewBox="0 0 420.3 420.09"><g id="Capa_2" data-name="Capa 2"><g id="Capa_1-2" data-name="Capa 1"><path d="M353.05,370.06H167.45c5.32,21.52.78,36-13.92,44.89a35.21,35.21,0,0,1-42.16-4.16c-13-11.87-14.38-26.77-4.44-48-.77-.51-1.56-1.07-2.37-1.58C84.9,349,74.83,331.26,74.82,308q0-118.23.1-236.46c0-4.4-1.37-6.85-5-9.21C48.55,48.25,27.22,34,6.1,19.46c-2.8-1.93-5.5-5.7-6-9C-1,3,7.53-2.37,14.39,1.06a37.76,37.76,0,0,1,3.8,2.39C41,18.72,63.78,34.13,86.79,49.16c5.82,3.8,8.72,8.29,8.08,15.24-.33,3.62-.06,7.3-.06,11.54,6.74.67,13.29,1.38,19.85,2q83.13,7.22,166.27,14.38,63,5.46,125.94,11c10.41.91,13.06,3.78,13.06,14.13,0,41,.28,82-.22,123a67,67,0,0,1-5,25.15c-8.31,19.25-23.26,29.74-44.89,29.72q-110.23-.09-220.47,0c-6.49,0-13-.25-19.49,0-12.36.57-23.92-1.38-34.22-10.09a25.8,25.8,0,0,0-.57,3.74c.2,9-.28,18.06.84,26.93,2.27,17.79,17,31.5,34.74,33.4a88.24,88.24,0,0,0,9.48.47q120.72,0,241.46.08A52.29,52.29,0,0,1,395,351.19c18.65,5,29.35,24.73,23.95,43.66a35.1,35.1,0,0,1-67.38-19.7Zm46.88-247.17L94.81,96.1v6.31q0,61.74,0,123.48c0,6.49-.19,13,.14,19.49.85,16.71,13.29,29.55,28.64,29.56q123.74.06,247.45,0c9,0,16.1-3.71,21.51-10.72,5.17-6.71,7.4-14.41,7.39-22.84q0-57,0-114ZM384.57,400.38a15.14,15.14,0,0,0,15.36-15.06,15.34,15.34,0,0,0-15.26-15.23,15.15,15.15,0,0,0-15,14.89A14.91,14.91,0,0,0,384.57,400.38ZM135.15,369.8A15.1,15.1,0,0,0,120,385a15.14,15.14,0,0,0,30.28.06A14.89,14.89,0,0,0,135.15,369.8Z"/></g></g></svg>