<svg xmlns="http://www.w3.org/2000/svg" viewBox="0 0 77.69 43.28"><defs><style>.cls-1{fill:#ea7025;}</style></defs><g id="Capa_2" data-name="Capa 2"><g id="Capa_1-2" data-name="Capa 1"><rect class="cls-1" x="65.88" y="31.46" width="11.82" height="11.82"/><path d="M47.15,0c-6,0-9.85,2.19-12.21,5.56C32.58,2,28.88,0,23.91,0c-5.64,0-9.34,2.19-11.28,5.05V1.18H0V30.55H12.63v-11c0-5,2.36-7.91,6.57-7.91,4,0,6.06,2.69,6.06,6.9V43.28H37.89V19.53c0-5,2.36-7.91,6.57-7.91,4,0,6.06,2.69,6.06,6.9V43.28H63.15V17.43C63.15,6.9,56.83,0,47.15,0Z"/></g></g></svg>